<?xml version="1.0" standalone="no"?><svg xmlns="http://www.w3.org/2000/svg" viewBox="0 0 1440 320"><path fill="#ffffff" fill-opacity="1" d="M0,192L20,181.3C40,171,80,149,120,160C160,171,200,213,240,197.3C280,181,320,107,360,101.3C400,96,440,160,480,181.3C520,203,560,181,600,154.7C640,128,680,96,720,85.3C760,75,800,85,840,101.3C880,117,920,139,960,138.7C1000,139,1040,117,1080,122.7C1120,128,1160,160,1200,170.7C1240,181,1280,171,1320,192C1360,213,1400,267,1420,293.3L1440,320L1440,320L1420,320C1400,320,1360,320,1320,320C1280,320,1240,320,1200,320C1160,320,1120,320,1080,320C1040,320,1000,320,960,320C920,320,880,320,840,320C800,320,760,320,720,320C680,320,640,320,600,320C560,320,520,320,480,320C440,320,400,320,360,320C320,320,280,320,240,320C200,320,160,320,120,320C80,320,40,320,20,320L0,320Z"></path></svg>